<svg width="281" height="295" viewBox="0 0 281 295" fill="none" xmlns="http://www.w3.org/2000/svg">
<mask id="mask0_2_2686" style="mask-type:luminance" maskUnits="userSpaceOnUse" x="0" y="0" width="281" height="295">
<path d="M280.16 0.0310059H0.159912V294.109H280.16V0.0310059Z" fill="white"/>
</mask>
<g mask="url(#mask0_2_2686)">
<path d="M215.12 162.288C216.553 163.72 218.496 164.525 220.521 164.525C222.547 164.525 224.491 163.72 225.923 162.288C227.356 160.855 228.16 158.912 228.16 156.887C228.16 154.861 227.356 152.917 225.923 151.485C224.491 150.052 222.547 149.248 220.521 149.248C218.496 149.248 216.553 150.052 215.12 151.485C213.687 152.917 212.882 154.861 212.882 156.887C212.882 158.912 213.687 160.855 215.12 162.288Z" stroke="#D3B714" stroke-width="0.782123"/>
<path d="M183.544 211.676C185.87 214.002 189.025 215.309 192.314 215.309C195.605 215.309 198.759 214.002 201.085 211.676C203.412 209.35 204.718 206.195 204.718 202.905C204.718 199.616 203.412 196.46 201.085 194.134C198.759 191.808 195.605 190.501 192.314 190.501C189.025 190.501 185.87 191.808 183.544 194.134C181.217 196.46 179.911 199.616 179.911 202.905C179.911 206.195 181.217 209.35 183.544 211.676Z" fill="#D3B714"/>
<path d="M232.618 228.913C234.944 231.239 238.099 232.546 241.389 232.546C244.678 232.546 247.833 231.239 250.159 228.913C252.485 226.587 253.792 223.432 253.792 220.142C253.792 216.853 252.485 213.698 250.159 211.372C247.833 209.046 244.678 207.739 241.389 207.739C238.099 207.739 234.944 209.046 232.618 211.372C230.292 213.698 228.985 216.853 228.985 220.142C228.985 223.432 230.292 226.587 232.618 228.913Z" fill="#D3B714"/>
<path d="M252.971 162.194L256.738 158.427L260.504 162.194L256.738 165.96L252.971 162.194Z" stroke="#D3B714" stroke-width="0.782123"/>
<path d="M246.951 134.189C247.19 134.428 247.513 134.562 247.851 134.562C248.189 134.562 248.513 134.428 248.752 134.189C248.991 133.95 249.125 133.626 249.125 133.288C249.125 132.951 248.991 132.627 248.752 132.388C248.513 132.15 248.189 132.015 247.851 132.015C247.513 132.015 247.19 132.15 246.951 132.388C246.712 132.627 246.578 132.951 246.578 133.288C246.578 133.626 246.712 133.95 246.951 134.189Z" fill="#D3B714"/>
<path d="M202.563 278.389C204.24 280.066 206.515 281.008 208.887 281.008C211.259 281.008 213.533 280.066 215.21 278.389C216.888 276.712 217.829 274.437 217.829 272.065C217.829 269.694 216.888 267.419 215.21 265.742C213.533 264.065 211.259 263.122 208.887 263.122C206.515 263.122 204.24 264.065 202.563 265.742C200.886 267.419 199.944 269.694 199.944 272.065C199.944 274.437 200.886 276.712 202.563 278.389Z" fill="#D3B714"/>
<path d="M245.131 288.534C245.951 289.356 247.065 289.816 248.226 289.816C249.387 289.816 250.5 289.356 251.322 288.534C252.142 287.714 252.603 286.6 252.603 285.439C252.603 284.278 252.142 283.165 251.322 282.344C250.5 281.523 249.387 281.062 248.226 281.062C247.065 281.062 245.951 281.523 245.131 282.344C244.31 283.165 243.849 284.278 243.849 285.439C243.849 286.6 244.31 287.714 245.131 288.534Z" fill="#D3B714"/>
<path d="M280.667 93.088L282.912 90.8425L287.359 95.2897L285.114 97.5344L280.667 93.088Z" stroke="#037B0B" stroke-width="0.782123"/>
<path d="M180.595 247.856C181.385 248.646 182.323 249.272 183.356 249.7C184.388 250.128 185.494 250.348 186.612 250.348C187.729 250.348 188.835 250.128 189.868 249.7C190.9 249.272 191.839 248.646 192.629 247.856C193.419 247.066 194.046 246.128 194.473 245.095C194.901 244.063 195.12 242.957 195.12 241.839C195.12 240.722 194.901 239.616 194.473 238.583C194.046 237.551 193.419 236.612 192.629 235.822C191.839 235.032 190.9 234.405 189.868 233.978C188.835 233.55 187.729 233.33 186.612 233.33C185.494 233.33 184.388 233.55 183.356 233.978C182.323 234.405 181.385 235.032 180.595 235.822C179.805 236.612 179.178 237.551 178.751 238.583C178.323 239.616 178.103 240.722 178.103 241.839C178.103 242.957 178.323 244.063 178.751 245.095C179.178 246.128 179.805 247.066 180.595 247.856Z" fill="#D3B714"/>
<path d="M250.225 260.895C251.425 262.095 253.052 262.769 254.749 262.769C256.446 262.769 258.074 262.095 259.273 260.895C260.473 259.695 261.147 258.067 261.147 256.37C261.147 254.674 260.473 253.046 259.273 251.846C258.074 250.646 256.446 249.972 254.749 249.972C253.052 249.972 251.425 250.646 250.225 251.846C249.025 253.046 248.351 254.674 248.351 256.37C248.351 258.067 249.025 259.695 250.225 260.895Z" fill="#037B0B"/>
<path d="M208.907 192.439C210.096 193.628 211.709 194.296 213.392 194.296C215.073 194.296 216.687 193.628 217.876 192.439C219.065 191.249 219.733 189.636 219.733 187.954C219.733 186.272 219.065 184.659 217.876 183.469C216.687 182.28 215.073 181.612 213.392 181.612C211.709 181.612 210.096 182.28 208.907 183.469C207.717 184.659 207.049 186.272 207.049 187.954C207.049 189.636 207.717 191.249 208.907 192.439Z" stroke="#037B0B" stroke-width="0.782123"/>
</g>
</svg>
