<svg width="281" height="295" viewBox="0 0 281 295" fill="none" xmlns="http://www.w3.org/2000/svg">
<g clip-path="url(#clip0_2_2632)">
<mask id="mask0_2_2632" style="mask-type:luminance" maskUnits="userSpaceOnUse" x="0" y="0" width="281" height="295">
<path d="M280.83 0.0310059H0.830017V294.109H280.83V0.0310059Z" fill="white"/>
</mask>
<g mask="url(#mask0_2_2632)">
<g filter="url(#filter0_f_2_2632)">
<path d="M243.179 195.825C241.401 195.825 239.959 197.263 239.959 199.037C239.959 200.811 241.401 202.249 243.179 202.249C244.958 202.249 246.4 200.811 246.4 199.037C246.4 197.263 244.958 195.825 243.179 195.825Z" fill="#EFA40E"/>
</g>
<g filter="url(#filter1_f_2_2632)">
<path d="M211.894 219.289C210.116 219.289 208.674 220.726 208.674 222.5C208.674 224.274 210.116 225.713 211.894 225.713C213.673 225.713 215.115 224.274 215.115 222.5C215.115 220.726 213.673 219.289 211.894 219.289Z" fill="#EFA40E"/>
</g>
<g filter="url(#filter2_f_2_2632)">
<path d="M253.397 241.436C251.387 241.436 249.757 243.061 249.757 245.066C249.757 247.071 251.387 248.696 253.397 248.696C255.408 248.696 257.037 247.071 257.037 245.066C257.037 243.061 255.408 241.436 253.397 241.436Z" fill="#0ECDEF"/>
</g>
<g filter="url(#filter3_f_2_2632)">
<path d="M229.933 280.542C227.923 280.542 226.293 282.167 226.293 284.172C226.293 286.177 227.923 287.802 229.933 287.802C231.944 287.802 233.573 286.177 233.573 284.172C233.573 282.167 231.944 280.542 229.933 280.542Z" fill="#0ECDEF"/>
</g>
<g filter="url(#filter4_f_2_2632)">
<path d="M151.721 272.72C149.711 272.72 148.081 274.346 148.081 276.351C148.081 278.356 149.711 279.981 151.721 279.981C153.732 279.981 155.361 278.356 155.361 276.351C155.361 274.346 153.732 272.72 151.721 272.72Z" fill="#0ECDEF"/>
</g>
<path d="M181.694 254.838L182.692 257.693L180.694 257.384C180.502 257.346 180.233 257.5 180.118 257.809C180.157 258.078 180.31 258.31 180.541 258.387L183.154 258.811L184.076 261.434L178.773 260.508C178.427 260.469 178.158 260.624 178.197 260.894C178.082 261.202 178.235 261.434 178.581 261.473L184.422 262.514L185.344 264.867L181.616 269.38L179.426 269.033L177.275 263.054C177.198 262.977 177.16 262.899 177.083 262.861C177.006 262.784 176.776 262.745 176.66 262.745C176.314 262.861 176.199 263.131 176.391 263.402L178.312 268.879L175.623 268.377L174.547 265.6C174.585 265.523 174.547 265.484 174.47 265.407C174.316 265.291 174.086 265.253 173.893 265.329C173.701 265.407 173.586 265.716 173.624 265.986L174.508 268.223L171.127 267.644C170.935 267.605 170.666 267.759 170.551 268.03C170.589 268.3 170.743 268.57 170.935 268.608L174.124 269.149L172.856 270.691C172.664 270.884 172.741 271.231 172.895 271.347C173.125 271.539 173.471 271.579 173.663 271.347L175.315 269.341L178.005 269.842L174.585 274.009C174.393 274.201 174.432 274.472 174.623 274.664C174.854 274.857 175.123 274.818 175.315 274.626L179.08 270.035L181.425 270.344L183.422 275.898L182.039 277.595L176.045 276.593C175.738 276.477 175.43 276.709 175.469 276.978C175.354 277.248 175.584 277.441 175.853 277.557L181.309 278.483L179.542 280.604L176.852 280.141C176.622 280.065 176.314 280.295 176.276 280.527C176.237 280.758 176.429 281.029 176.736 281.144L178.811 281.491L176.66 284.114C176.468 284.307 176.583 284.654 176.814 284.847C176.929 284.963 177.275 285.001 177.467 284.77L179.619 282.186L180.426 284.23C180.502 284.423 180.733 284.616 181.04 284.5C181.232 284.423 181.425 284.076 181.309 283.883L180.348 281.299L182.116 279.139L184.037 284.346C184.191 284.616 184.422 284.809 184.729 284.693C184.921 284.616 185.113 284.269 184.998 284.076L182.846 278.252L184.268 276.554L190.031 277.519L190.8 279.756L186.996 284.346C186.842 284.577 186.842 284.847 187.072 285.04C187.303 285.233 187.649 285.233 187.803 285.04L191.222 280.874L192.221 283.458L190.569 285.464C190.377 285.658 190.415 285.927 190.646 286.12C190.876 286.313 191.146 286.275 191.299 286.081L192.606 284.5L193.681 287.547C193.758 287.74 194.143 287.933 194.334 287.817C194.565 287.663 194.757 287.431 194.603 287.2L193.49 284.037L195.794 284.423C196.064 284.384 196.294 284.23 196.333 284.037C196.409 283.806 196.333 283.613 196.178 283.497C196.178 283.497 196.102 283.42 195.949 283.458L193.066 282.919L192.068 280.334L197.793 281.221C198.062 281.337 198.331 281.183 198.369 280.836C198.369 280.72 198.331 280.566 198.177 280.45C198.1 280.373 198.062 280.334 197.984 280.257L191.684 279.293L190.953 277.172L194.681 272.659L197.178 273.121L199.253 278.714C199.368 279.061 199.637 279.139 199.906 278.985C200.175 278.985 200.252 278.676 200.175 278.367L198.292 273.276L201.02 273.7L201.942 276.207C202.019 276.4 202.327 276.515 202.596 276.477C202.826 276.323 203.018 276.091 202.865 275.86L202.211 273.931L205.17 274.394C205.439 274.51 205.631 274.278 205.746 274.009C205.746 273.893 205.631 273.7 205.515 273.546C205.515 273.546 205.439 273.507 205.362 273.43L202.173 272.929L203.71 271.077C203.825 270.922 203.864 270.576 203.633 270.383C203.44 270.19 203.095 270.305 202.98 270.46L201.097 272.735L198.331 272.311L202.058 267.799C202.211 267.605 202.134 267.258 201.904 267.066C201.674 266.873 201.405 266.911 201.251 267.142L197.14 272.08L194.872 271.694L192.875 266.14L194.45 264.211L200.521 265.291C200.79 265.291 201.059 265.098 201.174 264.828C201.136 264.712 201.059 264.481 200.905 264.365C200.828 264.327 200.752 264.249 200.636 264.249L195.18 263.324L196.947 261.202L199.714 261.627C199.906 261.665 200.175 261.511 200.29 261.241C200.252 260.971 200.098 260.701 199.906 260.663L197.677 260.315L199.637 257.963C199.752 257.809 199.714 257.384 199.56 257.268C199.368 257.075 198.946 257.114 198.83 257.268L196.871 259.621L196.218 257.577C196.14 257.538 196.064 257.461 195.987 257.422C195.833 257.268 195.641 257.23 195.487 257.23C195.256 257.422 195.141 257.693 195.141 257.963L196.14 260.508L194.373 262.668L192.452 257.461C192.375 257.114 192.068 257.037 191.875 257.114C191.568 257.191 191.453 257.5 191.453 257.769L193.643 263.556L192.068 265.484L186.266 264.52L185.459 262.36L189.532 257.384C189.724 257.191 189.685 256.883 189.455 256.728C189.263 256.535 188.994 256.574 188.802 256.767L185.075 261.28L184.153 258.656L186.035 256.342C186.15 256.226 186.112 255.802 185.92 255.609C185.689 255.417 185.344 255.533 185.228 255.687L183.691 257.538L182.616 254.491C182.539 254.452 182.539 254.452 182.462 254.375C182.308 254.259 182.116 254.221 181.963 254.221C181.732 254.375 181.616 254.645 181.694 254.838ZM191.299 266.371L191.953 266.525L192.144 267.027L193.758 271.501L193.95 272.042L193.566 272.504L190.607 276.13L190.223 276.554L189.685 276.477L184.998 275.667L184.422 275.59L184.191 275.011L182.616 270.576L182.347 269.997L182.731 269.534L185.728 265.947L186.073 265.484L186.688 265.638L191.299 266.371Z" fill="#EFA40E"/>
<path d="M264.194 176.537L264.365 174.889L265.281 175.501C265.387 175.585 265.536 175.564 265.664 175.459C265.728 175.311 265.706 175.142 265.6 175.079L264.407 174.233L264.556 172.711L267.005 174.423C267.176 174.529 267.325 174.508 267.389 174.381C267.496 174.254 267.496 174.085 267.325 174L264.621 172.098L264.748 170.724L267.687 169.372L268.709 170.047L268.326 173.536C268.347 173.578 268.368 173.62 268.411 173.683C268.433 173.726 268.518 173.789 268.581 173.81C268.774 173.852 268.901 173.726 268.88 173.578L269.22 170.407L270.435 171.295L270.328 172.901C270.264 172.922 270.285 172.986 270.328 173.028C270.371 173.112 270.456 173.197 270.583 173.197C270.69 173.197 270.818 173.091 270.86 172.943L270.946 171.633L272.5 172.711C272.607 172.796 272.777 172.775 272.884 172.648C272.948 172.521 272.927 172.351 272.841 172.267L271.372 171.274L272.373 170.808C272.522 170.745 272.543 170.555 272.5 170.449C272.436 170.301 272.288 170.217 272.138 170.28L270.839 170.872L269.604 169.984L272.288 168.758C272.436 168.695 272.5 168.546 272.436 168.399C272.351 168.251 272.224 168.209 272.074 168.272L269.093 169.646L268.006 168.927L268.304 165.714L269.412 165.207L272.181 167.131C272.288 167.236 272.5 167.215 272.565 167.067C272.692 166.961 272.607 166.813 272.5 166.686L269.987 164.932L271.393 164.298L272.628 165.186C272.713 165.249 272.927 165.207 272.99 165.122C273.054 165.038 273.033 164.827 272.927 164.7L271.968 164.044L273.65 163.262C273.8 163.199 273.821 163.008 273.757 162.86C273.714 162.776 273.544 162.67 273.395 162.734L271.712 163.516L271.797 162.311C271.819 162.184 271.734 162.057 271.563 162.015C271.435 162.015 271.265 162.163 271.265 162.268L271.137 163.769L269.753 164.425L270.03 161.381C270.009 161.233 269.944 161.085 269.753 161.043C269.646 161.043 269.476 161.191 269.455 161.296L269.178 164.679L268.07 165.186L265.387 163.347L265.558 162.057L268.539 160.683C268.688 160.62 268.731 160.472 268.666 160.345C268.603 160.197 268.433 160.092 268.283 160.155L265.6 161.402L265.706 159.901L267.005 159.288C267.155 159.225 267.197 159.098 267.133 158.95C267.069 158.802 266.942 158.76 266.792 158.823L265.77 159.288L265.941 157.512C265.962 157.407 265.812 157.238 265.706 157.238C265.536 157.259 265.387 157.322 265.408 157.491L265.217 159.31L264.173 158.57C264.024 158.527 263.853 158.549 263.79 158.633C263.705 158.717 263.705 158.844 263.747 158.95C263.747 158.95 263.768 158.992 263.832 159.013L265.174 159.964L265.046 161.465L262.405 159.669C262.277 159.563 262.107 159.584 262.022 159.732C262 159.795 261.958 159.88 262 159.964C262.022 160.028 262.065 160.071 262.086 160.113L264.982 162.078L264.854 163.305L261.915 164.657L260.787 163.833L261.063 160.577C261.106 160.387 260.978 160.261 260.808 160.282C260.68 160.239 260.552 160.345 260.531 160.535L260.275 163.495L258.998 162.628L259.125 161.169C259.125 161.064 259.019 160.937 258.87 160.895C258.699 160.916 258.572 160.979 258.593 161.148L258.465 162.247L257.081 161.296C256.975 161.191 256.825 161.254 256.698 161.359C256.676 161.444 256.676 161.55 256.719 161.656C256.719 161.656 256.74 161.698 256.761 161.74L258.231 162.755L257.017 163.305C256.931 163.347 256.825 163.516 256.889 163.664C256.953 163.79 257.144 163.833 257.251 163.79L258.742 163.093L260.02 163.96L257.081 165.312C256.931 165.376 256.91 165.566 256.974 165.714C257.038 165.862 257.187 165.904 257.337 165.841L260.552 164.361L261.596 165.08L261.276 168.314L260.041 168.885L257.251 166.919C257.102 166.855 256.931 166.877 256.825 167.003C256.783 167.067 256.783 167.173 256.825 167.279C256.846 167.321 256.867 167.384 256.953 167.405L259.444 169.138L258.06 169.794L256.783 168.927C256.698 168.843 256.527 168.864 256.399 168.991C256.357 169.117 256.378 169.286 256.463 169.372L257.485 170.047L255.952 170.766C255.845 170.808 255.76 171.02 255.824 171.105C255.888 171.253 256.101 171.337 256.186 171.274L257.72 170.576L257.57 171.739C257.592 171.802 257.613 171.845 257.635 171.887C257.677 171.992 257.783 172.056 257.847 172.077C258.018 172.077 258.145 171.95 258.188 171.823L258.295 170.301L259.7 169.667L259.423 172.69C259.381 172.88 259.509 173.007 259.615 173.007C259.807 173.049 259.935 172.922 259.977 172.796L260.275 169.414L261.532 168.822L264.194 170.682L264.088 171.95L260.872 173.43C260.722 173.493 260.68 173.641 260.744 173.768C260.808 173.916 260.936 173.958 261.085 173.895L264.024 172.563L263.853 174.085L262.363 174.761C262.277 174.803 262.192 175.015 262.256 175.163C262.32 175.311 262.512 175.332 262.618 175.29L263.811 174.74L263.641 176.495C263.662 176.537 263.662 176.537 263.683 176.601C263.726 176.685 263.832 176.77 263.896 176.791C264.067 176.77 264.194 176.664 264.194 176.537ZM262.107 168.567L261.83 168.335L261.851 168.04L262.107 165.439L262.128 165.122L262.427 164.996L264.79 163.918L265.067 163.79L265.323 163.96L267.496 165.461L267.751 165.63L267.729 165.989L267.474 168.546L267.453 168.885L267.176 169.033L264.812 170.111L264.513 170.238L264.237 170.026L262.107 168.567Z" fill="#1BD7B5" fill-opacity="0.94"/>
<path d="M264.194 207.822L264.365 206.174L265.281 206.786C265.387 206.87 265.536 206.849 265.664 206.744C265.728 206.596 265.706 206.427 265.6 206.364L264.407 205.518L264.556 203.996L267.005 205.708C267.176 205.814 267.325 205.793 267.389 205.666C267.496 205.539 267.496 205.37 267.325 205.285L264.621 203.383L264.748 202.009L267.687 200.656L268.709 201.332L268.326 204.82C268.347 204.863 268.368 204.905 268.411 204.968C268.433 205.011 268.518 205.074 268.581 205.095C268.774 205.137 268.901 205.011 268.88 204.863L269.22 201.692L270.435 202.58L270.328 204.186C270.264 204.207 270.285 204.271 270.328 204.313C270.371 204.397 270.456 204.482 270.583 204.482C270.69 204.482 270.818 204.376 270.86 204.228L270.946 202.918L272.5 203.996C272.607 204.081 272.777 204.059 272.884 203.933C272.948 203.806 272.927 203.636 272.841 203.552L271.372 202.559L272.373 202.093C272.522 202.03 272.543 201.84 272.5 201.734C272.436 201.586 272.288 201.502 272.138 201.565L270.839 202.157L269.604 201.269L272.288 200.043C272.436 199.98 272.5 199.831 272.436 199.683C272.351 199.536 272.224 199.493 272.074 199.557L269.093 200.931L268.006 200.212L268.304 196.999L269.412 196.492L272.181 198.416C272.288 198.521 272.5 198.5 272.565 198.352C272.692 198.246 272.607 198.098 272.5 197.971L269.987 196.217L271.393 195.583L272.628 196.471C272.713 196.534 272.927 196.492 272.99 196.407C273.054 196.323 273.033 196.112 272.927 195.985L271.968 195.329L273.65 194.547C273.8 194.484 273.821 194.293 273.757 194.145C273.714 194.061 273.544 193.955 273.395 194.019L271.712 194.801L271.797 193.595C271.819 193.469 271.734 193.342 271.563 193.3C271.435 193.3 271.265 193.448 271.265 193.553L271.137 195.054L269.753 195.71L270.03 192.665C270.009 192.518 269.944 192.37 269.753 192.328C269.646 192.328 269.476 192.475 269.455 192.581L269.178 195.964L268.07 196.471L265.387 194.632L265.558 193.342L268.539 191.968C268.688 191.904 268.731 191.757 268.666 191.63C268.603 191.482 268.433 191.377 268.283 191.44L265.6 192.687L265.706 191.186L267.005 190.573C267.155 190.51 267.197 190.382 267.133 190.235C267.069 190.087 266.942 190.045 266.792 190.108L265.77 190.573L265.941 188.797C265.962 188.692 265.812 188.523 265.706 188.523C265.536 188.544 265.387 188.607 265.408 188.776L265.217 190.594L264.173 189.855C264.024 189.812 263.853 189.833 263.79 189.918C263.705 190.002 263.705 190.129 263.747 190.235C263.747 190.235 263.768 190.277 263.832 190.298L265.174 191.249L265.046 192.75L262.405 190.953C262.277 190.848 262.107 190.869 262.022 191.017C262 191.08 261.958 191.165 262 191.249C262.022 191.313 262.065 191.355 262.086 191.398L264.982 193.363L264.854 194.59L261.915 195.942L260.787 195.117L261.063 191.862C261.106 191.672 260.978 191.545 260.808 191.567C260.68 191.524 260.552 191.63 260.531 191.82L260.275 194.78L258.998 193.913L259.125 192.454C259.125 192.349 259.019 192.222 258.87 192.18C258.699 192.201 258.572 192.264 258.593 192.433L258.465 193.532L257.081 192.581C256.975 192.475 256.825 192.539 256.698 192.644C256.676 192.729 256.676 192.835 256.719 192.941C256.719 192.941 256.74 192.983 256.761 193.025L258.231 194.04L257.017 194.59C256.931 194.632 256.825 194.801 256.889 194.949C256.953 195.075 257.144 195.117 257.251 195.075L258.742 194.378L260.02 195.245L257.081 196.597C256.931 196.661 256.91 196.851 256.974 196.999C257.038 197.147 257.187 197.189 257.337 197.126L260.552 195.646L261.596 196.365L261.276 199.599L260.041 200.17L257.251 198.204C257.102 198.14 256.931 198.161 256.825 198.288C256.783 198.352 256.783 198.458 256.825 198.563C256.846 198.606 256.867 198.669 256.953 198.69L259.444 200.423L258.06 201.079L256.783 200.212C256.698 200.128 256.527 200.149 256.399 200.276C256.357 200.402 256.378 200.571 256.463 200.656L257.485 201.332L255.952 202.051C255.845 202.093 255.76 202.305 255.824 202.39C255.888 202.537 256.101 202.622 256.186 202.559L257.72 201.861L257.57 203.024C257.592 203.087 257.613 203.13 257.635 203.172C257.677 203.277 257.783 203.341 257.847 203.362C258.018 203.362 258.145 203.235 258.188 203.108L258.295 201.586L259.7 200.952L259.423 203.975C259.381 204.165 259.509 204.292 259.615 204.292C259.807 204.334 259.935 204.207 259.977 204.081L260.275 200.699L261.532 200.107L264.194 201.966L264.088 203.235L260.872 204.715C260.722 204.778 260.68 204.926 260.744 205.053C260.808 205.201 260.936 205.243 261.085 205.179L264.024 203.848L263.853 205.37L262.363 206.046C262.277 206.088 262.192 206.3 262.256 206.448C262.32 206.596 262.512 206.617 262.618 206.575L263.811 206.025L263.641 207.78C263.662 207.822 263.662 207.822 263.683 207.886C263.726 207.97 263.832 208.055 263.896 208.076C264.067 208.055 264.194 207.949 264.194 207.822ZM262.107 199.852L261.83 199.62L261.851 199.324L262.107 196.724L262.128 196.407L262.427 196.28L264.79 195.203L265.067 195.075L265.323 195.245L267.496 196.746L267.751 196.915L267.729 197.274L267.474 199.831L267.453 200.17L267.176 200.318L264.812 201.396L264.513 201.523L264.237 201.311L262.107 199.852Z" fill="#1BD7B5" fill-opacity="0.94"/>
<path d="M214.61 186.067L217.154 190.088L216.237 194.225L213.143 191.337L212.982 186.576L212.96 186.507C212.937 186.415 212.799 186.322 212.662 186.299C212.479 186.299 212.364 186.461 212.41 186.622L212.547 190.805L211.034 189.395L210.966 187.57L210.943 187.5C210.92 187.408 210.76 187.316 210.645 187.292C210.462 187.292 210.324 187.454 210.37 187.616L210.415 188.887L209.316 187.824C209.224 187.732 208.994 187.755 208.903 187.847C208.743 187.94 208.811 188.171 208.903 188.263L210.003 189.303L208.765 189.326C208.582 189.326 208.445 189.488 208.491 189.65C208.491 189.834 208.651 189.973 208.811 189.926L210.645 189.834L212.088 191.244L207.964 191.383C207.78 191.383 207.642 191.545 207.688 191.706C207.688 191.891 207.849 192.03 208.009 191.983L212.753 191.822L215.847 194.71L211.745 195.981L207.551 193.739C207.39 193.67 207.23 193.717 207.161 193.855C207.092 194.017 207.138 194.179 207.276 194.248L210.989 196.212L209.018 196.837L207.459 196.004C207.321 195.912 207.161 195.981 207.07 196.12C207.001 196.259 207.047 196.42 207.184 196.513L208.262 197.067L206.725 197.552C206.565 197.552 206.496 197.738 206.542 197.899C206.588 198.061 206.749 198.154 206.909 198.107L208.33 197.645L207.757 198.731C207.688 198.87 207.734 199.031 207.871 199.124C208.009 199.217 208.193 199.147 208.262 199.008L209.087 197.414L211.058 196.813L209.087 200.556C209.018 200.696 209.063 200.857 209.201 200.926C209.338 200.996 209.522 200.95 209.59 200.81L211.814 196.559L215.847 195.311L214.908 199.447L211.011 201.943C210.851 202.035 210.851 202.221 210.897 202.382C211.011 202.544 211.195 202.544 211.356 202.498L214.862 200.256L214.404 202.267L212.845 203.237C212.684 203.33 212.684 203.514 212.731 203.676C212.845 203.838 213.029 203.838 213.143 203.792L214.174 203.122L213.854 204.601C213.831 204.716 213.899 204.947 214.083 204.947C214.266 204.947 214.426 204.901 214.426 204.716L214.748 203.237L215.435 204.277C215.527 204.439 215.71 204.439 215.825 204.415C215.916 204.323 215.985 204.185 215.962 204.069L215.94 204L214.977 202.451L215.435 200.441L217.658 203.954C217.773 204.092 217.933 204.115 218.047 204.069C218.14 203.977 218.209 203.838 218.185 203.722L218.162 203.676L215.618 199.655L216.558 195.519L219.652 198.408L219.813 203.168C219.79 203.352 219.95 203.468 220.133 203.422C220.294 203.422 220.431 203.26 220.385 203.098L220.248 198.939L221.737 200.326L221.83 202.174C221.83 202.359 221.99 202.498 222.15 202.429C222.333 202.429 222.448 202.289 222.402 202.105L222.38 200.857L223.48 201.897C223.572 201.989 223.801 201.989 223.892 201.897C223.984 201.805 224.007 201.666 223.961 201.573C223.961 201.504 223.938 201.458 223.87 201.412L222.769 200.372L224.007 200.348C224.19 200.348 224.328 200.187 224.282 200.025L224.259 199.979C224.213 199.863 224.075 199.794 223.961 199.771L222.128 199.863L220.638 198.454L224.764 198.315C224.947 198.315 225.084 198.154 225.015 197.992V197.922C224.969 197.83 224.832 197.738 224.695 197.714L219.973 197.876L216.879 194.988L220.912 193.739L225.13 195.981C225.267 196.05 225.428 196.004 225.496 195.842C225.589 195.704 225.52 195.542 225.382 195.472L221.737 193.485L223.686 192.862L225.267 193.693C225.405 193.786 225.565 193.717 225.634 193.578C225.703 193.439 225.657 193.278 225.52 193.185L224.442 192.63L225.863 192.191C226.024 192.145 226.116 191.983 226.07 191.822C226.001 191.66 225.863 191.591 225.703 191.637L224.282 192.076L224.855 190.99C224.878 190.921 224.924 190.851 224.9 190.736C224.878 190.62 224.786 190.597 224.717 190.551C224.58 190.482 224.419 190.528 224.328 190.666L223.503 192.261L221.554 192.862L223.503 189.141C223.548 189.049 223.572 188.979 223.548 188.887C223.525 188.817 223.434 188.725 223.365 188.702C223.227 188.609 223.067 188.656 222.976 188.817L220.752 193.046L216.741 194.317L217.658 190.158L221.669 187.593C221.761 187.5 221.83 187.362 221.784 187.246V187.2C221.669 187.062 221.486 187.038 221.371 187.084L217.887 189.326L218.345 187.316L219.904 186.345C219.996 186.253 220.065 186.114 220.042 185.999L220.019 185.953C219.904 185.791 219.721 185.791 219.629 185.837L218.575 186.507L218.896 185.028C218.873 184.982 218.919 184.89 218.896 184.843C218.873 184.728 218.781 184.635 218.667 184.612C218.483 184.612 218.323 184.658 218.3 184.843L217.979 186.345L217.315 185.282C217.2 185.144 217.017 185.12 216.902 185.166C216.764 185.282 216.764 185.444 216.787 185.559L217.75 187.13L217.291 189.141L215.068 185.605C214.977 185.467 214.793 185.467 214.679 185.49C214.564 185.721 214.518 185.906 214.61 186.067Z" fill="#0ECDEF"/>
<path d="M195.267 234.704L193.138 232.986L194.865 232.323C195.026 232.245 195.146 232.011 195.106 231.737C194.986 231.582 194.745 231.425 194.544 231.503L192.255 232.362L190.327 230.762L194.945 229.044C195.227 228.928 195.347 228.693 195.227 228.498C195.186 228.225 194.905 228.108 194.624 228.225L189.523 230.099L187.757 228.693L188.6 223.581L190.488 222.839L194.945 226.469C195.026 226.508 195.106 226.508 195.186 226.508C195.267 226.547 195.468 226.469 195.548 226.391C195.789 226.195 195.748 225.922 195.507 225.805L191.411 222.488L193.781 221.629L195.909 223.268C195.909 223.347 195.989 223.386 196.07 223.386C196.23 223.424 196.431 223.347 196.552 223.19C196.672 223.034 196.592 222.761 196.472 222.566L194.745 221.278L197.676 220.185C197.837 220.146 197.957 219.912 197.917 219.639C197.797 219.444 197.556 219.327 197.355 219.366L194.624 220.38L194.905 218.624C194.945 218.39 194.704 218.195 194.544 218.156C194.303 218.117 193.982 218.234 193.942 218.507L193.58 220.77L191.21 221.59L192.014 216.907C192.054 216.634 191.893 216.438 191.652 216.399C191.371 216.36 191.171 216.516 191.13 216.75L190.287 221.941L188.279 222.761L184.142 219.444L184.463 217.531L189.644 215.579C189.925 215.54 190.086 215.228 189.925 215.033C189.885 214.76 189.604 214.721 189.363 214.76L184.624 216.516L185.025 214.057L187.395 213.238C187.556 213.199 187.717 212.847 187.636 212.692C187.556 212.535 187.275 212.341 186.993 212.418L185.187 213.082L185.668 210.115C185.708 209.882 185.507 209.686 185.226 209.647C185.066 209.608 184.785 209.725 184.745 209.998L184.263 212.926L182.656 211.716C182.536 211.598 182.254 211.56 182.054 211.794C181.934 211.95 181.974 212.302 182.134 212.418L184.062 213.94L183.66 216.36L179.765 213.238C179.524 213.121 179.242 213.082 179.041 213.316C178.921 213.472 178.962 213.824 179.122 213.94L183.5 217.375L183.178 219.287L178.198 221.161L176.552 219.795L177.395 214.604C177.436 214.33 177.315 214.136 177.034 214.096C176.793 214.057 176.512 214.214 176.471 214.448L175.668 219.17L173.7 217.648L174.102 215.385C174.142 215.112 173.982 214.916 173.741 214.877C173.459 214.838 173.258 214.994 173.219 215.228L172.938 216.985L170.688 215.189C170.528 215.073 170.167 215.112 170.045 215.267C169.925 215.502 169.885 215.736 170.126 215.853L172.455 217.765L170.487 218.507C170.287 218.663 170.126 218.897 170.207 219.054C170.246 219.248 170.408 219.366 170.608 219.405C170.608 219.405 170.688 219.405 170.769 219.327L173.339 218.429L175.267 219.951L170.367 221.863C170.086 221.902 169.966 222.137 170.086 222.41C170.167 222.488 170.246 222.605 170.408 222.644C170.487 222.644 170.568 222.644 170.648 222.683L176.07 220.576L177.636 221.863L176.793 226.976L174.624 227.756L170.367 224.439C170.126 224.205 169.885 224.283 169.725 224.517C169.524 224.634 169.604 224.908 169.805 225.103L173.66 228.147L171.291 229.044L169.403 227.562C169.243 227.444 169.001 227.483 168.801 227.64C168.64 227.874 168.6 228.108 168.841 228.225L170.246 229.396L167.716 230.372C167.436 230.411 167.396 230.684 167.436 230.957C167.516 231.035 167.676 231.152 167.837 231.191C167.837 231.191 167.917 231.191 167.998 231.191L170.769 230.176L170.408 232.284C170.367 232.44 170.487 232.713 170.769 232.752C171.01 232.792 171.251 232.557 171.251 232.401L171.693 229.786L174.062 228.889L173.219 234.002C173.179 234.274 173.42 234.469 173.66 234.508C173.901 234.547 174.142 234.392 174.182 234.157L175.106 228.538L177.074 227.795L181.21 231.113L180.849 233.298L175.588 235.251C175.387 235.367 175.267 235.602 175.307 235.875C175.387 235.992 175.508 236.069 175.709 236.109C175.789 236.148 175.869 236.148 175.99 236.069L180.689 234.314L180.287 236.733L177.918 237.67C177.717 237.709 177.596 237.983 177.636 238.216C177.797 238.411 178.038 238.568 178.238 238.489L180.126 237.748L179.684 240.441C179.644 240.597 179.885 240.909 180.046 240.909C180.287 240.987 180.608 240.754 180.608 240.597L181.09 237.904L182.536 239.153C182.616 239.192 182.736 239.192 182.817 239.192C182.978 239.231 183.178 239.192 183.259 239.114C183.379 238.88 183.339 238.607 183.219 238.411L181.251 236.889L181.652 234.469L185.548 237.592C185.789 237.787 186.07 237.748 186.19 237.592C186.391 237.358 186.351 237.085 186.19 236.889L181.812 233.455L182.175 231.27L187.194 229.396L188.841 230.684L187.877 236.304C187.837 236.577 187.998 236.733 188.238 236.812C188.52 236.85 188.72 236.694 188.761 236.46L189.604 231.308L191.572 232.908L191.13 235.524C191.09 235.679 191.331 235.992 191.572 236.031C191.813 236.069 192.054 235.836 192.094 235.679L192.415 233.572L194.704 235.406C194.785 235.406 194.785 235.406 194.865 235.406C195.026 235.445 195.227 235.406 195.306 235.328C195.468 235.094 195.387 234.821 195.267 234.704ZM182.335 230.254L181.773 230.45L181.371 230.137L178.038 227.444L177.636 227.132L177.717 226.625L178.399 222.488L178.48 222.019L178.962 221.825L183.018 220.302L183.5 220.107L183.981 220.458L187.234 223.112L187.717 223.463L187.636 223.971L186.953 228.069L186.873 228.576L186.31 228.732L182.335 230.254Z" fill="#0ECDEF"/>
<path d="M251.47 268.589L253.417 270.235L251.823 270.885C251.647 270.928 251.514 271.145 251.558 271.404C251.691 271.621 251.913 271.708 252.089 271.664L254.257 270.885L256.07 272.4L251.691 273.959C251.425 274.089 251.293 274.306 251.425 274.522C251.47 274.782 251.691 274.868 251.956 274.782L256.823 273.05L258.504 274.392L257.619 279.243L255.849 279.935L251.691 276.428C251.603 276.428 251.514 276.428 251.425 276.384C251.337 276.384 251.16 276.428 251.072 276.514C250.895 276.73 250.939 276.947 251.16 277.077L254.964 280.281L252.709 281.061L250.718 279.459C250.762 279.415 250.674 279.372 250.585 279.372C250.409 279.329 250.231 279.415 250.143 279.545C250.01 279.675 250.054 279.935 250.187 280.108L251.823 281.365L249.037 282.403C248.86 282.447 248.727 282.664 248.772 282.923C248.905 283.096 249.17 283.226 249.346 283.183L251.913 282.23L251.647 283.876C251.603 284.136 251.823 284.352 251.956 284.352C252.222 284.395 252.487 284.265 252.531 284.049L252.886 281.884L255.141 281.104L254.345 285.565C254.301 285.824 254.433 285.998 254.699 286.041C254.921 286.085 255.141 285.955 255.141 285.738L256.027 280.758L257.929 280.022L261.821 283.226L261.467 285.045L256.557 286.864C256.292 286.907 256.159 287.21 256.292 287.384C256.335 287.643 256.601 287.686 256.823 287.643L261.29 285.998L260.892 288.336L258.68 289.115C258.504 289.159 258.371 289.462 258.415 289.635C258.459 289.808 258.769 289.938 259.034 289.895L260.759 289.289L260.229 292.06C260.229 292.321 260.406 292.493 260.671 292.536C260.848 292.58 261.113 292.45 261.157 292.234L261.644 289.419L263.104 290.588C263.236 290.675 263.502 290.718 263.723 290.501C263.812 290.371 263.767 290.025 263.635 289.938L261.821 288.466L262.219 286.171L265.891 289.159C266.112 289.289 266.333 289.332 266.554 289.115C266.642 288.943 266.642 288.639 266.466 288.509L262.396 285.218L262.706 283.356L267.439 281.624L268.987 282.966L268.103 287.903C268.058 288.12 268.191 288.336 268.456 288.379C268.677 288.379 268.943 288.293 268.987 288.033L269.783 283.572L271.642 285.045L271.244 287.21C271.199 287.427 271.332 287.6 271.597 287.643C271.818 287.686 271.995 287.557 272.04 287.34L272.349 285.651L274.472 287.384C274.605 287.514 274.959 287.47 275.092 287.34C275.18 287.123 275.225 286.864 275.003 286.777L272.836 284.915L274.693 284.222C274.87 284.093 275.003 283.876 274.959 283.702C274.915 283.529 274.738 283.443 274.605 283.4C274.605 283.4 274.517 283.4 274.428 283.443L271.995 284.265L270.181 282.836L274.826 281.061C275.092 281.018 275.225 280.801 275.092 280.542C275.003 280.455 274.959 280.368 274.782 280.325C274.693 280.325 274.649 280.281 274.561 280.281L269.43 282.23L267.97 280.974L268.81 276.124L270.889 275.388L274.826 278.593C275.048 278.809 275.313 278.766 275.446 278.55C275.623 278.42 275.578 278.159 275.357 277.944L271.774 275.042L274.03 274.219L275.799 275.648C275.932 275.778 276.197 275.735 276.374 275.605C276.507 275.345 276.551 275.129 276.33 274.999L275.003 273.873L277.436 272.963C277.702 272.92 277.702 272.703 277.702 272.444C277.613 272.357 277.48 272.227 277.303 272.227C277.303 272.227 277.215 272.184 277.127 272.184L274.561 273.137L274.87 271.145C274.915 271.015 274.782 270.711 274.561 270.668C274.295 270.624 274.119 270.841 274.074 271.015L273.632 273.483L271.42 274.349L272.26 269.499C272.305 269.239 272.084 269.023 271.818 268.979C271.552 268.936 271.42 269.109 271.376 269.325L270.403 274.652L268.544 275.345L264.652 272.14L265.05 270.062L270.048 268.287C270.226 268.156 270.358 267.94 270.314 267.68C270.226 267.594 270.093 267.464 269.916 267.464C269.828 267.42 269.783 267.42 269.65 267.507L265.183 269.109L265.581 266.814L267.837 265.948C268.014 265.904 268.146 265.688 268.103 265.428C267.97 265.255 267.748 265.125 267.571 265.168L265.758 265.861L266.2 263.306C266.244 263.133 266.024 262.874 265.891 262.83C265.626 262.787 265.36 263.003 265.316 263.133L264.873 265.688L263.502 264.475C263.414 264.475 263.325 264.475 263.236 264.432C263.104 264.432 262.927 264.475 262.794 264.519C262.706 264.735 262.75 264.995 262.883 265.211L264.696 266.641L264.298 268.979L260.627 265.991C260.406 265.774 260.184 265.818 260.051 265.948C259.83 266.165 259.875 266.424 260.008 266.597L264.122 269.931L263.767 272.01L259.034 273.743L257.486 272.487L258.415 267.16C258.459 266.901 258.327 266.727 258.061 266.684C257.84 266.641 257.663 266.771 257.619 267.031L256.734 271.881L254.921 270.322L255.363 267.853C255.407 267.724 255.186 267.42 254.921 267.377C254.699 267.333 254.478 267.55 254.478 267.724L254.124 269.716L252.001 267.983C251.913 267.94 251.913 267.94 251.823 267.94C251.647 267.896 251.47 267.94 251.382 268.026C251.293 268.243 251.293 268.503 251.47 268.589ZM263.59 272.963L264.122 272.79L264.52 273.093L267.66 275.691L268.014 275.994L267.926 276.471L267.262 280.368L267.173 280.844L266.731 281.018L262.883 282.403L262.396 282.577L261.953 282.273L258.902 279.719L258.459 279.372L258.547 278.896L259.211 274.999L259.3 274.522L259.83 274.349L263.59 272.963Z" fill="#1BD7B5" fill-opacity="0.94"/>
<path d="M256.412 217.273L258.293 218.896L256.768 219.504C256.615 219.555 256.463 219.757 256.514 220.011C256.666 220.163 256.87 220.315 257.022 220.264L259.107 219.504L260.835 220.974L256.666 222.495C256.361 222.597 256.26 222.85 256.412 223.002C256.412 223.256 256.666 223.408 256.92 223.256L261.547 221.582L263.174 222.901L262.36 227.666L260.632 228.326L256.615 224.929C256.565 224.878 256.463 224.878 256.412 224.878C256.31 224.827 256.158 224.878 256.056 224.979C255.853 225.182 255.904 225.436 256.107 225.537L259.767 228.63L257.632 229.39L255.7 227.869C255.751 227.768 255.65 227.768 255.599 227.768C255.395 227.717 255.243 227.768 255.141 227.92C255.039 228.072 255.09 228.326 255.192 228.477L256.768 229.745L254.124 230.708C253.921 230.759 253.819 230.961 253.87 231.215C253.972 231.418 254.226 231.519 254.379 231.469L256.87 230.556L256.565 232.178C256.565 232.432 256.768 232.584 256.92 232.635C257.124 232.685 257.378 232.533 257.429 232.331L257.785 230.201L259.92 229.492L259.208 233.8C259.157 234.055 259.259 234.257 259.513 234.257C259.717 234.308 259.92 234.206 259.971 233.953L260.784 229.137L262.614 228.426L266.325 231.519L266.02 233.294L261.293 235.068C261.038 235.119 260.937 235.423 261.038 235.575C261.089 235.828 261.343 235.879 261.547 235.828L265.868 234.257L265.461 236.488L263.326 237.248C263.174 237.299 263.021 237.603 263.072 237.756C263.123 237.907 263.428 238.059 263.682 238.059L265.309 237.451L264.851 240.138C264.8 240.391 265.004 240.595 265.207 240.645C265.41 240.645 265.665 240.544 265.665 240.29L266.173 237.603L267.546 238.718C267.698 238.82 267.952 238.871 268.156 238.668C268.257 238.516 268.207 238.161 268.105 238.059L266.325 236.64L266.732 234.409L270.24 237.299C270.443 237.451 270.647 237.501 270.85 237.248C270.952 237.147 270.952 236.792 270.799 236.69L266.885 233.446L267.19 231.671L271.714 229.999L273.189 231.266L272.375 236.082C272.324 236.336 272.426 236.488 272.68 236.539C272.934 236.589 273.189 236.488 273.189 236.234L273.951 231.874L275.731 233.294L275.375 235.423C275.324 235.626 275.426 235.828 275.68 235.879C275.934 235.879 276.086 235.778 276.137 235.524L276.442 233.902L278.476 235.626C278.577 235.728 278.933 235.677 279.035 235.575C279.137 235.322 279.188 235.119 278.984 234.967L276.849 233.193L278.679 232.533C278.832 232.381 278.984 232.178 278.933 232.027C278.882 231.823 278.73 231.722 278.577 231.722C278.577 231.722 278.476 231.722 278.374 231.773L276.086 232.584L274.307 231.165L278.781 229.441C279.035 229.39 279.188 229.187 279.035 228.934C278.984 228.832 278.933 228.731 278.781 228.68C278.679 228.68 278.628 228.68 278.527 228.68L273.646 230.556L272.223 229.339L273.036 224.625L275.019 223.914L278.832 227.007C279.035 227.21 279.289 227.21 279.391 226.957C279.543 226.855 279.543 226.602 279.34 226.399L275.883 223.56L278.018 222.748L279.696 224.168C279.848 224.269 280.103 224.219 280.306 224.067C280.408 223.864 280.458 223.61 280.204 223.509L278.984 222.394L281.272 221.532C281.526 221.481 281.577 221.279 281.526 221.024C281.475 220.924 281.323 220.822 281.17 220.771C281.17 220.771 281.119 220.771 281.018 220.771L278.527 221.684L278.882 219.757C278.882 219.605 278.781 219.351 278.527 219.301C278.323 219.251 278.12 219.453 278.069 219.605L277.662 222.039L275.527 222.85L276.341 218.135C276.391 217.881 276.188 217.679 275.934 217.679C275.68 217.679 275.527 217.729 275.476 217.983L274.561 223.205L272.782 223.813L269.071 220.721L269.427 218.693L274.205 216.969C274.409 216.817 274.51 216.614 274.46 216.361C274.409 216.259 274.256 216.158 274.104 216.158C274.053 216.107 273.951 216.107 273.85 216.158L269.579 217.78L269.986 215.499L272.121 214.688C272.274 214.637 272.426 214.383 272.375 214.181C272.223 213.978 272.019 213.877 271.867 213.927L270.138 214.586L270.545 212.102C270.596 211.949 270.393 211.645 270.24 211.645C269.986 211.595 269.732 211.798 269.681 211.949L269.274 214.434L267.952 213.268C267.851 213.217 267.8 213.217 267.698 213.217C267.546 213.166 267.393 213.217 267.291 213.268C267.19 213.522 267.241 213.775 267.342 213.927L269.122 215.346L268.715 217.628L265.207 214.688C265.004 214.484 264.75 214.535 264.648 214.688C264.444 214.89 264.495 215.144 264.648 215.296L268.562 218.54L268.206 220.568L263.682 222.292L262.208 221.075L263.072 215.854C263.123 215.6 263.021 215.448 262.767 215.397C262.513 215.346 262.36 215.499 262.309 215.701L261.496 220.467L259.767 218.946L260.174 216.563C260.174 216.411 259.971 216.107 259.767 216.056C259.513 216.056 259.31 216.259 259.31 216.411L258.954 218.338L256.92 216.614C256.87 216.614 256.87 216.614 256.768 216.614C256.615 216.563 256.463 216.614 256.361 216.716C256.26 216.918 256.26 217.172 256.412 217.273ZM268.054 221.481L268.562 221.329L268.918 221.633L271.918 224.168L272.274 224.472L272.172 224.929L271.511 228.731L271.46 229.187L271.003 229.39L267.342 230.759L266.885 230.911L266.478 230.607L263.529 228.072L263.123 227.768L263.174 227.311L263.834 223.509L263.936 223.052L264.444 222.901L268.054 221.481Z" fill="#EFA40E"/>
<path d="M220.889 260.335L221.934 258.573L222.65 259.737C222.71 259.857 222.919 259.917 223.098 259.857C223.248 259.737 223.307 259.528 223.248 259.409L222.322 257.855L223.277 256.213L225.129 259.379C225.248 259.589 225.457 259.648 225.577 259.528C225.786 259.469 225.845 259.259 225.696 259.08L223.665 255.556L224.502 254.062L228.473 254.032L229.279 255.346L227.07 259.051C227.07 259.11 227.07 259.2 227.07 259.259C227.07 259.32 227.129 259.439 227.219 259.528C227.398 259.648 227.607 259.589 227.667 259.379L229.667 256.004L230.563 257.617L229.608 259.379C229.548 259.379 229.548 259.439 229.548 259.499C229.548 259.648 229.608 259.768 229.757 259.827C229.876 259.887 230.055 259.827 230.205 259.708L230.981 258.274L232.146 260.275C232.205 260.395 232.414 260.454 232.593 260.395C232.743 260.275 232.803 260.067 232.743 259.947L231.608 258.065H232.982C233.191 258.065 233.311 257.855 233.311 257.737C233.311 257.527 233.191 257.348 232.982 257.348H231.22L230.295 255.735L233.937 255.705C234.147 255.705 234.266 255.586 234.266 255.377C234.266 255.197 234.147 255.048 233.937 255.048L229.906 255.078L229.07 253.704L231.071 250.269L232.564 250.239L234.654 253.824C234.714 254.003 234.983 254.092 235.102 253.943C235.31 253.883 235.31 253.674 235.251 253.495L233.34 250.239H235.221L236.147 251.852C236.207 252.001 236.475 252.061 236.595 252.001C236.714 251.942 236.804 251.673 236.714 251.464L235.998 250.239H238.267C238.476 250.239 238.595 250.03 238.595 249.821C238.595 249.701 238.476 249.522 238.267 249.522H235.998L236.714 248.208C236.774 248.088 236.774 247.879 236.565 247.76C236.445 247.7 236.177 247.76 236.117 247.879L235.221 249.522H233.34L235.192 246.267C235.281 246.087 235.281 245.878 235.072 245.758C234.952 245.699 234.684 245.758 234.624 245.878L232.564 249.522L231.071 249.552L229.04 246.117L229.876 244.743L233.907 244.713C234.086 244.713 234.236 244.594 234.236 244.385C234.206 244.205 234.086 243.996 233.907 243.996L230.265 244.026L231.16 242.383H232.922C233.101 242.383 233.25 242.234 233.221 242.055C233.221 241.845 233.101 241.727 232.922 241.727H231.548L232.654 239.845C232.713 239.725 232.624 239.456 232.504 239.397C232.325 239.336 232.116 239.336 232.056 239.515L230.891 241.487L230.116 240.113C229.966 239.993 229.787 239.934 229.638 239.993C229.518 240.054 229.459 240.173 229.459 240.323C229.459 240.323 229.459 240.382 229.518 240.441L230.504 242.204L229.608 243.817L227.578 240.441C227.517 240.262 227.309 240.203 227.1 240.323C227.039 240.382 226.98 240.441 226.98 240.591C226.98 240.651 226.98 240.711 226.98 240.77L229.219 244.474L228.443 245.788H224.472L223.636 244.295L225.607 240.8C225.756 240.591 225.696 240.382 225.487 240.323C225.367 240.203 225.158 240.262 225.039 240.472L223.218 243.668L222.233 242.025L223.158 240.472C223.218 240.352 223.158 240.143 223.008 240.024C222.829 239.964 222.62 239.964 222.561 240.143L221.845 241.338L220.799 239.576C220.739 239.366 220.531 239.366 220.352 239.456C220.291 239.515 220.232 239.635 220.232 239.785C220.232 239.785 220.232 239.845 220.232 239.904L221.336 241.786H219.695C219.575 241.786 219.396 241.935 219.396 242.114C219.396 242.323 219.575 242.443 219.724 242.443H221.725L222.71 244.056L218.739 244.086C218.56 244.086 218.41 244.265 218.41 244.474C218.41 244.683 218.56 244.803 218.739 244.803L223.098 244.773L223.905 246.117L221.904 249.582H220.202L218.112 245.968C217.962 245.819 217.783 245.758 217.574 245.848C217.515 245.908 217.455 246.027 217.455 246.147C217.455 246.236 217.455 246.296 217.515 246.356L219.426 249.612H217.545L216.559 247.999C216.5 247.85 216.291 247.79 216.081 247.85C215.962 247.999 215.902 248.178 215.962 248.328L216.768 249.612H214.678C214.529 249.612 214.35 249.821 214.35 249.94C214.35 250.149 214.558 250.328 214.678 250.328H216.768L215.992 251.553C215.992 251.643 215.992 251.702 215.992 251.763C215.992 251.882 216.051 252.031 216.111 252.091C216.321 252.151 216.5 252.091 216.649 251.942L217.545 250.328H219.426L217.545 253.584C217.425 253.763 217.485 253.973 217.634 254.032C217.814 254.152 218.022 254.092 218.142 253.973L220.202 250.299H221.904L223.934 253.734L223.158 255.108L218.798 255.138C218.589 255.138 218.47 255.257 218.47 255.466C218.47 255.645 218.589 255.795 218.798 255.795L222.77 255.765L221.784 257.408H219.784C219.665 257.408 219.455 257.587 219.455 257.796C219.455 257.975 219.665 258.125 219.784 258.125H221.396L220.321 260.006C220.321 260.067 220.321 260.067 220.321 260.126C220.321 260.275 220.381 260.395 220.441 260.454C220.65 260.514 220.829 260.454 220.889 260.335ZM222.68 250.299L222.471 249.911L222.68 249.582L224.293 246.774L224.472 246.446H224.86H228.055H228.443L228.652 246.745L230.265 249.552L230.474 249.881L230.295 250.269L228.682 253.017L228.473 253.405H228.085H224.89H224.502L224.322 253.017L222.68 250.299Z" fill="#EFA40E"/>
</g>
</g>
<defs>
<filter id="filter0_f_2_2632" x="238.394" y="194.261" width="9.57002" height="9.55208" filterUnits="userSpaceOnUse" color-interpolation-filters="sRGB">
<feFlood flood-opacity="0" result="BackgroundImageFix"/>
<feBlend mode="normal" in="SourceGraphic" in2="BackgroundImageFix" result="shape"/>
<feGaussianBlur stdDeviation="0.782123" result="effect1_foregroundBlur_2_2632"/>
</filter>
<filter id="filter1_f_2_2632" x="207.109" y="217.725" width="9.57002" height="9.55208" filterUnits="userSpaceOnUse" color-interpolation-filters="sRGB">
<feFlood flood-opacity="0" result="BackgroundImageFix"/>
<feBlend mode="normal" in="SourceGraphic" in2="BackgroundImageFix" result="shape"/>
<feGaussianBlur stdDeviation="0.782123" result="effect1_foregroundBlur_2_2632"/>
</filter>
<filter id="filter2_f_2_2632" x="248.193" y="239.871" width="10.4085" height="10.389" filterUnits="userSpaceOnUse" color-interpolation-filters="sRGB">
<feFlood flood-opacity="0" result="BackgroundImageFix"/>
<feBlend mode="normal" in="SourceGraphic" in2="BackgroundImageFix" result="shape"/>
<feGaussianBlur stdDeviation="0.782123" result="effect1_foregroundBlur_2_2632"/>
</filter>
<filter id="filter3_f_2_2632" x="224.729" y="278.978" width="10.4085" height="10.389" filterUnits="userSpaceOnUse" color-interpolation-filters="sRGB">
<feFlood flood-opacity="0" result="BackgroundImageFix"/>
<feBlend mode="normal" in="SourceGraphic" in2="BackgroundImageFix" result="shape"/>
<feGaussianBlur stdDeviation="0.782123" result="effect1_foregroundBlur_2_2632"/>
</filter>
<filter id="filter4_f_2_2632" x="146.517" y="271.156" width="10.4085" height="10.389" filterUnits="userSpaceOnUse" color-interpolation-filters="sRGB">
<feFlood flood-opacity="0" result="BackgroundImageFix"/>
<feBlend mode="normal" in="SourceGraphic" in2="BackgroundImageFix" result="shape"/>
<feGaussianBlur stdDeviation="0.782123" result="effect1_foregroundBlur_2_2632"/>
</filter>
<clipPath id="clip0_2_2632">
<rect width="280" height="294.078" fill="white" transform="translate(0.830017 0.0310059)"/>
</clipPath>
</defs>
</svg>
