<svg width="281" height="295" viewBox="0 0 281 295" fill="none" xmlns="http://www.w3.org/2000/svg">
<g clip-path="url(#clip0_2_2608)">
<mask id="mask0_2_2608" style="mask-type:luminance" maskUnits="userSpaceOnUse" x="0" y="0" width="281" height="295">
<path d="M280.5 0.480957H0.499878V294.559H280.5V0.480957Z" fill="white"/>
</mask>
<g mask="url(#mask0_2_2608)">
<path d="M257.11 184.931C259.028 186.848 261.63 187.926 264.342 187.926C267.054 187.926 269.655 186.848 271.573 184.931C273.49 183.013 274.568 180.412 274.568 177.7C274.568 174.987 273.49 172.387 271.573 170.468C269.655 168.551 267.054 167.474 264.342 167.474C261.63 167.474 259.028 168.551 257.11 170.468C255.193 172.387 254.116 174.987 254.116 177.7C254.116 180.412 255.193 183.013 257.11 184.931Z" stroke="#10E77D" stroke-width="1.56425" stroke-dasharray="2.35 2.35"/>
<path d="M253.876 193.053C251.527 191.651 248.728 191.221 246.095 191.859C243.462 192.495 241.212 194.147 239.837 196.451C238.464 198.754 238.08 201.519 238.77 204.14C239.46 206.76 241.168 209.019 243.517 210.421C244.68 211.115 245.966 211.578 247.301 211.783C248.637 211.988 249.995 211.931 251.299 211.616C252.602 211.3 253.826 210.732 254.899 209.945C255.973 209.156 256.875 208.164 257.556 207.023C258.236 205.883 258.68 204.617 258.863 203.298C259.046 201.979 258.965 200.632 258.623 199.335C258.281 198.037 257.687 196.815 256.872 195.737C256.058 194.659 255.039 193.748 253.876 193.053ZM239.084 217.869C237.92 217.175 236.634 216.714 235.299 216.51C233.964 216.306 232.605 216.364 231.302 216.681C228.669 217.321 226.421 218.974 225.049 221.279C223.677 223.583 223.295 226.35 223.988 228.969C224.681 231.588 226.39 233.846 228.741 235.246C231.092 236.646 233.891 237.073 236.523 236.434C239.155 235.794 241.405 234.14 242.777 231.836C244.148 229.532 244.529 226.766 243.837 224.146C243.145 221.527 241.435 219.269 239.084 217.869ZM224.308 242.694C221.959 241.292 219.16 240.862 216.527 241.499C213.894 242.137 211.643 243.789 210.269 246.091C208.896 248.394 208.512 251.16 209.202 253.78C209.891 256.4 211.6 258.66 213.949 260.062C216.299 261.464 219.098 261.894 221.73 261.256C224.363 260.619 226.614 258.967 227.987 256.665C229.362 254.361 229.746 251.596 229.055 248.976C228.365 246.355 226.658 244.096 224.308 242.694ZM209.516 267.51C208.352 266.817 207.066 266.354 205.731 266.151C204.395 265.947 203.037 266.005 201.734 266.322C200.43 266.638 199.208 267.208 198.135 267.996C197.061 268.785 196.16 269.778 195.481 270.92C194.801 272.061 194.358 273.327 194.176 274.646C193.994 275.966 194.077 277.313 194.419 278.609C194.763 279.906 195.359 281.129 196.175 282.206C196.989 283.283 198.009 284.194 199.172 284.887C201.523 286.287 204.323 286.715 206.955 286.075C209.587 285.435 211.837 283.782 213.208 281.477C214.579 279.173 214.961 276.406 214.269 273.787C213.577 271.168 211.867 268.91 209.516 267.51ZM258.129 128.314C256.965 127.62 255.679 127.158 254.344 126.953C253.009 126.748 251.651 126.804 250.347 127.12C249.044 127.435 247.82 128.003 246.747 128.791C245.673 129.579 244.77 130.572 244.09 131.712C243.41 132.852 242.965 134.118 242.782 135.438C242.599 136.757 242.68 138.103 243.022 139.401C243.364 140.698 243.959 141.921 244.773 142.999C245.588 144.076 246.606 144.988 247.77 145.682C250.119 147.085 252.918 147.515 255.551 146.877C258.184 146.24 260.435 144.588 261.808 142.285C263.182 139.982 263.566 137.216 262.876 134.596C262.186 131.976 260.478 129.717 258.129 128.314ZM243.337 153.13C242.173 152.437 240.886 151.975 239.551 151.771C238.216 151.568 236.857 151.626 235.554 151.942C232.922 152.582 230.673 154.235 229.301 156.54C227.929 158.845 227.548 161.611 228.241 164.23C228.933 166.85 230.643 169.108 232.993 170.508C235.344 171.908 238.143 172.335 240.776 171.696C243.408 171.056 245.657 169.402 247.029 167.097C248.4 164.793 248.782 162.027 248.089 159.408C247.397 156.788 245.688 154.53 243.337 153.13ZM228.561 177.955C227.397 177.261 226.111 176.798 224.776 176.593C223.441 176.388 222.083 176.445 220.779 176.761C219.476 177.076 218.252 177.644 217.178 178.432C216.105 179.22 215.202 180.212 214.522 181.352C213.842 182.493 213.397 183.759 213.214 185.078C213.031 186.398 213.112 187.745 213.454 189.042C213.796 190.339 214.391 191.562 215.205 192.639C216.02 193.717 217.038 194.629 218.201 195.324C219.364 196.017 220.651 196.48 221.986 196.685C223.321 196.89 224.679 196.834 225.983 196.518C227.287 196.203 228.51 195.635 229.584 194.846C230.657 194.059 231.56 193.066 232.24 191.926C232.92 190.786 233.364 189.519 233.547 188.2C233.731 186.881 233.649 185.534 233.307 184.237C232.966 182.939 232.371 181.717 231.556 180.639C230.742 179.561 229.724 178.649 228.561 177.955ZM213.768 202.771C212.605 202.078 211.318 201.616 209.983 201.412C208.648 201.208 207.289 201.266 205.986 201.583C203.354 202.223 201.105 203.877 199.733 206.181C198.361 208.485 197.98 211.251 198.673 213.871C199.365 216.49 201.075 218.748 203.425 220.149C205.776 221.549 208.575 221.976 211.208 221.336C213.84 220.697 216.089 219.043 217.461 216.739C218.832 214.434 219.214 211.668 218.521 209.048C217.829 206.429 216.119 204.171 213.768 202.771Z" stroke="#E73635" stroke-width="1.77542" stroke-dasharray="2.35 1.56"/>
<path d="M287.911 253.64C285.606 252.273 283.928 250.064 283.246 247.5C282.564 244.935 282.934 242.226 284.274 239.967C285.615 237.708 287.817 236.085 290.394 235.454C292.972 234.824 295.716 235.238 298.021 236.605C299.162 237.282 300.162 238.173 300.963 239.226C301.763 240.28 302.348 241.476 302.686 242.745C303.024 244.015 303.107 245.334 302.93 246.626C302.754 247.919 302.321 249.159 301.658 250.278C300.994 251.397 300.112 252.371 299.061 253.145C298.012 253.919 296.814 254.479 295.537 254.791C294.261 255.103 292.93 255.162 291.622 254.964C290.313 254.767 289.052 254.317 287.911 253.64ZM302.36 229.308C301.22 228.63 300.221 227.739 299.422 226.684C298.622 225.63 298.037 224.433 297.701 223.164C297.021 220.599 297.394 217.889 298.737 215.632C300.079 213.374 302.282 211.753 304.861 211.125C307.439 210.497 310.182 210.913 312.486 212.282C314.79 213.652 316.467 215.862 317.146 218.427C317.826 220.991 317.453 223.7 316.11 225.958C314.768 228.216 312.565 229.838 309.986 230.466C307.407 231.094 304.664 230.678 302.36 229.308ZM316.826 204.985C314.521 203.618 312.842 201.409 312.16 198.845C311.478 196.281 311.848 193.571 313.189 191.312C314.53 189.053 316.732 187.43 319.31 186.799C321.887 186.169 324.63 186.583 326.935 187.95C329.241 189.318 330.919 191.526 331.601 194.09C332.283 196.655 331.913 199.365 330.572 201.624C329.232 203.882 327.03 205.506 324.452 206.136C321.874 206.767 319.13 206.353 316.826 204.985ZM331.275 180.653C330.134 179.975 329.135 179.084 328.336 178.029C327.537 176.975 326.952 175.779 326.615 174.509C326.279 173.239 326.197 171.92 326.374 170.628C326.552 169.335 326.986 168.095 327.651 166.977C328.316 165.859 329.199 164.886 330.25 164.112C331.3 163.339 332.498 162.781 333.775 162.47C335.052 162.158 336.383 162.1 337.691 162.299C338.999 162.498 340.26 162.949 341.401 163.627C343.705 164.997 345.381 167.207 346.061 169.772C346.74 172.337 346.368 175.046 345.025 177.303C343.682 179.561 341.479 181.183 338.901 181.811C336.322 182.439 333.579 182.023 331.275 180.653ZM234.168 287.558C233.026 286.88 232.027 285.99 231.226 284.937C230.426 283.883 229.84 282.687 229.502 281.417C229.164 280.148 229.082 278.829 229.258 277.536C229.435 276.244 229.868 275.003 230.531 273.885C231.195 272.766 232.077 271.792 233.127 271.017C234.177 270.243 235.374 269.684 236.651 269.372C237.927 269.06 239.258 269 240.567 269.198C241.875 269.395 243.136 269.846 244.277 270.523C246.582 271.89 248.261 274.099 248.943 276.663C249.625 279.227 249.255 281.937 247.914 284.196C246.574 286.455 244.372 288.078 241.794 288.709C239.216 289.339 236.473 288.925 234.168 287.558ZM248.617 263.226C247.476 262.548 246.477 261.656 245.678 260.602C244.879 259.548 244.294 258.352 243.958 257.082C243.278 254.517 243.65 251.808 244.993 249.55C246.336 247.292 248.538 245.67 251.117 245.042C253.696 244.414 256.439 244.83 258.743 246.2C261.046 247.569 262.723 249.78 263.403 252.344C264.082 254.909 263.709 257.618 262.367 259.876C261.024 262.134 258.821 263.755 256.242 264.383C253.664 265.011 250.921 264.595 248.617 263.226ZM263.082 238.903C261.941 238.226 260.941 237.335 260.141 236.282C259.34 235.228 258.754 234.032 258.417 232.763C258.08 231.493 257.997 230.174 258.173 228.882C258.349 227.589 258.782 226.348 259.446 225.23C260.109 224.111 260.991 223.137 262.042 222.363C263.092 221.589 264.29 221.03 265.566 220.717C266.842 220.405 268.173 220.346 269.481 220.543C270.79 220.741 272.051 221.191 273.192 221.868C274.334 222.545 275.333 223.435 276.133 224.49C276.934 225.543 277.52 226.738 277.857 228.008C278.195 229.278 278.278 230.596 278.101 231.889C277.925 233.181 277.493 234.423 276.829 235.541C276.165 236.659 275.282 237.634 274.233 238.408C273.182 239.183 271.985 239.742 270.708 240.054C269.432 240.366 268.102 240.425 266.793 240.228C265.485 240.03 264.224 239.58 263.082 238.903ZM277.532 214.571C276.391 213.893 275.393 213.001 274.592 211.948C273.793 210.893 273.208 209.697 272.872 208.426C272.192 205.862 272.564 203.153 273.907 200.895C275.25 198.637 277.453 197.016 280.031 196.387C282.61 195.759 285.353 196.176 287.657 197.545C289.961 198.914 291.637 201.125 292.317 203.69C292.997 206.254 292.624 208.964 291.281 211.222C289.938 213.479 287.736 215.1 285.157 215.728C282.579 216.357 279.836 215.94 277.532 214.571Z" stroke="#10E77D" stroke-width="1.77542" stroke-dasharray="2.35 1.56"/>
</g>
</g>
<defs>
<clipPath id="clip0_2_2608">
<rect width="280" height="294.078" fill="white" transform="translate(0.499878 0.480957)"/>
</clipPath>
</defs>
</svg>
