<svg width="281" height="295" viewBox="0 0 281 295" fill="none" xmlns="http://www.w3.org/2000/svg">
<g opacity="0.8" clip-path="url(#clip0_2_2584)">
<path d="M215.901 276.7L217.823 258.039L233.103 254.246L235.01 235.599L250.291 231.791L252.211 213.145L267.493 209.337" stroke="#D3B714" stroke-width="2.07263"/>
<path d="M225.994 287.799L227.915 269.139L243.194 265.346L245.102 246.699L260.384 242.891L262.303 224.245L277.584 220.438" stroke="#D3B714" stroke-width="2.07263"/>
<path d="M251.781 279.259L264.867 286.638L265.704 275.569L251.781 279.259Z" stroke="#037B0B" stroke-width="1.56425" stroke-dasharray="1.56 1.56"/>
<path d="M266.254 201.463C270.104 201.463 273.226 198.342 273.226 194.491C273.226 190.641 270.104 187.52 266.254 187.52C262.403 187.52 259.282 190.641 259.282 194.491C259.282 198.342 262.403 201.463 266.254 201.463Z" stroke="#D3B714" stroke-width="1.8067" stroke-dasharray="2.35 1.56"/>
<path d="M189.584 269.24L190.197 244.896L209.192 237.04L209.805 212.695L228.805 204.82L229.399 180.491L248.4 172.616M198.782 277.485L199.395 253.141L218.381 245.262L218.994 220.919L237.989 213.062L238.602 188.719L257.603 180.843" stroke="#06BBC7" stroke-width="1.56425"/>
<path d="M163.541 252.375L164.154 228.032L183.149 220.175L183.762 195.831L202.763 187.956L203.356 163.627L222.356 155.752M172.739 260.621L173.352 236.277L192.338 228.398L192.951 204.054L211.946 196.198L212.559 171.854L231.56 163.978" stroke="#E73635" stroke-width="1.56425"/>
</g>
<defs>
<clipPath id="clip0_2_2584">
<rect width="280" height="294.08" fill="white" transform="translate(0.159912 0.469971)"/>
</clipPath>
</defs>
</svg>
