<svg width="39" height="40" viewBox="0 0 39 40" fill="none" xmlns="http://www.w3.org/2000/svg">
<path d="M16.25 24.5C17.1875 24.5 18 25.3125 18 26.25C18 27.2188 17.1875 28 16.25 28C15.2812 28 14.5 27.2188 14.5 26.25C14.5 25.3125 15.2812 24.5 16.25 24.5ZM16.25 27C16.6562 27 17 26.6875 17 26.25C17 25.8438 16.6562 25.5 16.25 25.5C15.8125 25.5 15.5 25.8438 15.5 26.25C15.5 26.6875 15.8125 27 16.25 27ZM28.2812 14.4062C28.4688 14.6562 28.5312 14.9688 28.4375 15.25L26.8125 20.9688C26.625 21.5938 26.0312 22 25.375 22H15.6562L15.875 23H26C26.25 23 26.5 23.25 26.5 23.5C26.5 23.7812 26.25 24 26 24H15.5C15.25 24 15.0625 23.8438 15 23.625L12.5938 13H11C10.7188 13 10.5 12.7812 10.5 12.5C10.5 12.25 10.7188 12 11 12H13C13.2188 12 13.4062 12.1875 13.4688 12.4062L13.8438 14H27.5C27.8125 14 28.0938 14.1562 28.2812 14.4062ZM25.8438 20.6875L27.5 14.9688L14.0625 15L15.4375 21.0312C15.4375 21.0312 15.4688 21 15.5 21H25.375C25.5938 21 25.8125 20.875 25.8438 20.6875ZM24.75 24.5C25.6875 24.5 26.5 25.3125 26.5 26.25C26.5 27.2188 25.6875 28 24.75 28C23.7812 28 23 27.2188 23 26.25C23 25.3125 23.7812 24.5 24.75 24.5ZM24.75 27C25.1562 27 25.5 26.6875 25.5 26.25C25.5 25.8438 25.1562 25.5 24.75 25.5C24.3125 25.5 24 25.8438 24 26.25C24 26.6875 24.3125 27 24.75 27Z" fill="#334155"/>
</svg>
