<svg width="37" height="40" viewBox="0 0 37 40" fill="none" xmlns="http://www.w3.org/2000/svg">
<path d="M26.3438 27.1562C26.5312 27.3438 26.5312 27.6875 26.3438 27.875C26.25 27.9688 26.125 28 26 28C25.8438 28 25.7188 27.9688 25.5938 27.875L21.1875 23.4375C20.0312 24.4375 18.5625 25 16.9688 25C13.4062 25 10.5 22.0938 10.5 18.5C10.5 14.9375 13.375 12 16.9688 12C20.5312 12 23.4688 14.9375 23.4688 18.5C23.4688 20.125 22.9062 21.5938 21.9062 22.75L26.3438 27.1562ZM17 24C20.0312 24 22.5 21.5625 22.5 18.5C22.5 15.4688 20.0312 13 17 13C13.9375 13 11.5 15.4688 11.5 18.5C11.5 21.5312 13.9375 24 17 24Z" fill="#334155"/>
</svg>
