<svg width="35" height="40" viewBox="0 0 35 40" fill="none" xmlns="http://www.w3.org/2000/svg">
<path d="M17.5 20C15.2812 20 13.5 18.2188 13.5 16C13.5 13.8125 15.2812 12 17.5 12C19.6875 12 21.5 13.8125 21.5 16C21.5 18.2188 19.6875 20 17.5 20ZM17.5 13C15.8438 13 14.5 14.375 14.5 16C14.5 17.6562 15.8438 19 17.5 19C19.125 19 20.5 17.6562 20.5 16C20.5 14.375 19.125 13 17.5 13ZM19.0625 21.5C22.0625 21.5 24.5 23.9375 24.5 26.9375C24.5 27.5312 24 28 23.4062 28H11.5625C10.9688 28 10.5 27.5312 10.5 26.9375C10.5 23.9375 12.9062 21.5 15.9062 21.5H19.0625ZM23.4062 27C23.4375 27 23.5 26.9688 23.5 26.9375C23.5 24.5 21.5 22.5 19.0625 22.5H15.9062C13.4688 22.5 11.5 24.5 11.5 26.9375C11.5 26.9688 11.5312 27 11.5625 27H23.4062Z" fill="#334155"/>
</svg>
