<svg width="13" height="12" viewBox="0 0 13 12" fill="none" xmlns="http://www.w3.org/2000/svg">
<path d="M6.5 2.5V6H9.125M11.75 6C11.75 6.68944 11.6142 7.37213 11.3504 8.00909C11.0865 8.64605 10.6998 9.2248 10.2123 9.71231C9.7248 10.1998 9.14605 10.5865 8.50909 10.8504C7.87213 11.1142 7.18944 11.25 6.5 11.25C5.81056 11.25 5.12787 11.1142 4.49091 10.8504C3.85395 10.5865 3.2752 10.1998 2.78769 9.71231C2.30018 9.2248 1.91347 8.64605 1.64963 8.00909C1.3858 7.37213 1.25 6.68944 1.25 6C1.25 4.60761 1.80312 3.27226 2.78769 2.28769C3.77226 1.30312 5.10761 0.75 6.5 0.75C7.89239 0.75 9.22774 1.30312 10.2123 2.28769C11.1969 3.27226 11.75 4.60761 11.75 6Z" stroke="#334155" stroke-width="0.875" stroke-linecap="round" stroke-linejoin="round"/>
</svg>
