<svg width="13" height="14" viewBox="0 0 13 14" fill="none" xmlns="http://www.w3.org/2000/svg">
<path d="M1.82686 8.55182L0.940195 7.66515C0.578529 7.30349 0.578529 6.70849 0.940195 6.34682L1.82686 5.46015C1.97852 5.30848 2.10102 5.01097 2.10102 4.80097V3.5468C2.10102 3.03346 2.52102 2.61347 3.03436 2.61347H4.28852C4.49852 2.61347 4.79602 2.49099 4.94769 2.33932L5.83436 1.45265C6.19602 1.09098 6.79102 1.09098 7.15269 1.45265L8.03936 2.33932C8.19102 2.49099 8.48852 2.61347 8.69852 2.61347H9.95269C10.466 2.61347 10.886 3.03346 10.886 3.5468V4.80097C10.886 5.01097 11.0085 5.30848 11.1602 5.46015L12.0469 6.34682C12.4085 6.70849 12.4085 7.30349 12.0469 7.66515L11.1602 8.55182C11.0085 8.70349 10.886 9.00099 10.886 9.21099V10.4651C10.886 10.9784 10.466 11.3985 9.95269 11.3985H8.69852C8.48852 11.3985 8.19102 11.521 8.03936 11.6727L7.15269 12.5593C6.79102 12.921 6.19602 12.921 5.83436 12.5593L4.94769 11.6727C4.79602 11.521 4.49852 11.3985 4.28852 11.3985H3.03436C2.52102 11.3985 2.10102 10.9784 2.10102 10.4651V9.21099C2.10102 8.99515 1.97852 8.69765 1.82686 8.55182Z" stroke="#334155" stroke-width="0.875" stroke-linecap="round" stroke-linejoin="round"/>
</svg>
