<svg width="21" height="20" viewBox="0 0 21 20" fill="none" xmlns="http://www.w3.org/2000/svg">
<path d="M9.52991 2.8335L6.52992 6.41683C6.44659 6.5835 6.36326 6.8335 6.27992 7.00016L4.86326 14.1668C4.77992 14.6668 5.02992 15.2501 5.44659 15.5001L9.86324 18.0001C10.1966 18.1668 10.7799 18.1668 11.1132 18.0001L15.5299 15.5001C15.9466 15.2501 16.1966 14.6668 16.1132 14.1668L14.6966 7.00016C14.6966 6.8335 14.5299 6.5835 14.4466 6.41683L11.4466 2.8335C10.9466 2.16683 10.1132 2.16683 9.52991 2.8335Z" stroke="#475569" stroke-width="1.25" stroke-miterlimit="10" stroke-linecap="round" stroke-linejoin="round"/>
<path d="M14.5302 7.08325L10.9468 17.2499C10.7802 17.5833 10.2802 17.5833 10.1968 17.2499L6.53015 7.08325" stroke="#475569" stroke-width="1.25" stroke-miterlimit="10" stroke-linecap="round" stroke-linejoin="round"/>
</svg>
