<svg width="21" height="20" viewBox="0 0 21 20" fill="none" xmlns="http://www.w3.org/2000/svg">
<path d="M14.0367 15.8166H6.20337C5.85337 15.8166 5.46171 15.5416 5.34504 15.2082L1.89504 5.55822C1.40337 4.17489 1.97837 3.74989 3.16171 4.59989L6.41171 6.92489C6.95337 7.29989 7.57004 7.10822 7.80337 6.49989L9.27002 2.59155C9.73669 1.34155 10.5117 1.34155 10.9784 2.59155L12.445 6.49989C12.6784 7.10822 13.295 7.29989 13.8284 6.92489L16.8784 4.74989C18.1784 3.81655 18.8034 4.29155 18.27 5.79989L14.9034 15.2249C14.7784 15.5416 14.3867 15.8166 14.0367 15.8166Z" stroke="#475569" stroke-width="1.25" stroke-linecap="round" stroke-linejoin="round"/>
<path d="M5.53662 18.3333H14.7033" stroke="#475569" stroke-width="1.25" stroke-linecap="round" stroke-linejoin="round"/>
<path d="M8.03662 11.6667H12.2033" stroke="#475569" stroke-width="1.25" stroke-linecap="round" stroke-linejoin="round"/>
</svg>
