<svg width="21" height="20" viewBox="0 0 21 20" fill="none" xmlns="http://www.w3.org/2000/svg">
<g clip-path="url(#clip0_2_2531)">
<path d="M14.4868 15C16.4868 15 16.9868 13.875 16.9868 12.5V7.5C16.9868 6.125 16.4868 5 14.4868 5C12.4868 5 11.9868 6.125 11.9868 7.5V12.5C11.9868 13.875 12.4868 15 14.4868 15Z" stroke="#475569" stroke-width="1.25" stroke-linecap="round" stroke-linejoin="round"/>
<path d="M5.85339 15C3.85339 15 3.35339 13.875 3.35339 12.5V7.5C3.35339 6.125 3.85339 5 5.85339 5C7.85339 5 8.35339 6.125 8.35339 7.5V12.5C8.35339 13.875 7.85339 15 5.85339 15Z" stroke="#475569" stroke-width="1.25" stroke-linecap="round" stroke-linejoin="round"/>
<path d="M8.35339 10H11.9867" stroke="#475569" stroke-width="1.25" stroke-linecap="round" stroke-linejoin="round"/>
<path d="M18.92 12.0834V7.91675" stroke="#475569" stroke-width="1.25" stroke-linecap="round" stroke-linejoin="round"/>
<path d="M1.42004 12.0834V7.91675" stroke="#475569" stroke-width="1.25" stroke-linecap="round" stroke-linejoin="round"/>
</g>
<defs>
<clipPath id="clip0_2_2531">
<rect width="20" height="20" fill="white" transform="translate(0.170044)"/>
</clipPath>
</defs>
</svg>
