<svg width="21" height="20" viewBox="0 0 21 20" fill="none" xmlns="http://www.w3.org/2000/svg">
<path d="M18.2067 7.15011V12.8501C18.2067 13.7834 17.7067 14.6501 16.8984 15.1251L11.9484 17.9834C11.14 18.4501 10.14 18.4501 9.32337 17.9834L4.3734 15.1251C3.56506 14.6584 3.06506 13.7917 3.06506 12.8501V7.15011C3.06506 6.21677 3.56506 5.35007 4.3734 4.87507L9.32337 2.01675C10.1317 1.55008 11.1317 1.55008 11.9484 2.01675L16.8984 4.87507C17.7067 5.35007 18.2067 6.20844 18.2067 7.15011Z" stroke="#475569" stroke-width="1.25" stroke-linecap="round" stroke-linejoin="round"/>
<path d="M10.64 9.16679C11.7124 9.16679 12.5817 8.29743 12.5817 7.22507C12.5817 6.15272 11.7124 5.28345 10.64 5.28345C9.56766 5.28345 8.69836 6.15272 8.69836 7.22507C8.69836 8.29743 9.56766 9.16679 10.64 9.16679Z" stroke="#475569" stroke-width="1.25" stroke-linecap="round" stroke-linejoin="round"/>
<path d="M13.9733 13.8834C13.9733 12.3834 12.4816 11.1667 10.64 11.1667C8.79831 11.1667 7.30664 12.3834 7.30664 13.8834" stroke="#475569" stroke-width="1.25" stroke-linecap="round" stroke-linejoin="round"/>
</svg>
